<svg id="Layer_1" data-name="Layer 1" xmlns="http://www.w3.org/2000/svg" viewBox="0 0 663.81 517.86"><defs><style>.cls-1{fill:#fff;}.cls-2{fill:#0990af;}.cls-3{fill:#cb2027;}.cls-4{fill:#ed3924;}</style></defs><rect class="cls-1" x="5.51" y="7.15" width="653.71" height="506.98" rx="36.29"/><path class="cls-2" d="M281.8,441.36A68.71,68.71,0,0,1,358.87,373c14.68-28.35,23.25-60.33,26.09-93.07a174.77,174.77,0,0,1-30.9-16c-18.57-12.3-32.89-27.92-42.58-46.44-10.44-20-15.73-43.79-15.73-70.82,0-25.62,5.83-48.87,17.13-69.07-32.5-27.76-76.38-45-132.73-45H18.36V118l77.08,45.4V111.79h84.71c89.36,0,127,69.13,128.77,138.26C310.68,322.39,273.63,396,180.15,396H95.44V351.69L18.36,404.11v72.43H180.15c40.41,0,74.46-8.93,102.53-24.24A69.12,69.12,0,0,1,281.8,441.36Z"/><polygon class="cls-3" points="15.2 181.18 14.96 329.56 141.51 261.29 15.2 181.18"/><path class="cls-4" d="M483.93,205.07c-49.32-6.4-91.72-17.13-91.72-55.82,0-33,27.65-59,85.33-59,33,0,62.84,13.2,81.82,30.33l63.15-40C587.94,32,530.68,17.27,475.16,17.27c-75.83.62-159.41,38.08-159.41,129.4,0,99.67,77.69,123.71,161.79,134.55,54.68,6.29,95.24,23.42,95.24,65.31,0,48.19-45.82,66.55-94.73,66.55-4.54,0-9.18-.2-13.62-.62v75.33c4.13.1,8.26.2,12.49.2,91.73,0,172.93-42.51,172.93-141.46C649.85,240.56,569.89,216.52,483.93,205.07Z"/><circle class="cls-4" cx="354.66" cy="445.36" r="58.86" transform="translate(-160.27 688.21) rotate(-76.72)"/></svg>
