<svg id="Layer_1" data-name="Layer 1" xmlns="http://www.w3.org/2000/svg" viewBox="0 0 645.43 492.99"><defs><style>.cls-1{fill:#0990af;}.cls-2{fill:#cb2027;}.cls-3{fill:#fff;}.cls-4{fill:#ed3924;}</style></defs><path class="cls-1" d="M271.3,428.23a68.94,68.94,0,0,1,68.86-68.86,67.52,67.52,0,0,1,8.21.51c14.68-28.35,23.25-60.34,26.09-93.08a174.73,174.73,0,0,1-30.9-16C325,238.5,310.67,222.87,301,204.35c-10.44-20-15.73-43.79-15.73-70.82,0-25.62,5.83-48.86,17.13-69.07-32.5-27.75-76.38-45-132.73-45H7.86v85.44l77.08,45.4V98.65h84.71c89.36,0,127,69.14,128.77,138.27,1.76,72.33-35.29,145.9-128.77,145.9H84.94V338.55L7.86,391V463.4H169.65c40.41,0,74.46-8.93,102.53-24.24A69.09,69.09,0,0,1,271.3,428.23Z"/><polygon class="cls-2" points="4.69 168.04 4.46 316.43 131.01 248.15 4.69 168.04"/><path class="cls-3" d="M473.43,191.93c-49.32-6.4-91.72-17.13-91.72-55.82,0-33,27.65-59,85.33-59,33,0,62.84,13.21,81.82,30.33l63.15-40C577.44,18.89,520.18,4.14,464.66,4.14c-75.84.62-159.41,38.07-159.41,129.39,0,99.67,77.69,123.72,161.79,134.55,54.68,6.29,95.23,23.42,95.23,65.32,0,48.18-45.81,66.55-94.72,66.55-4.54,0-9.18-.21-13.62-.62v75.32c4.13.1,8.26.21,12.49.21,91.73,0,172.93-42.51,172.93-141.46C639.35,227.43,559.39,203.38,473.43,191.93Z"/><circle class="cls-4" cx="344.16" cy="432.23" r="58.86" transform="translate(-155.58 667.87) rotate(-76.72)"/></svg>
