<svg id="Layer_1" data-name="Layer 1" xmlns="http://www.w3.org/2000/svg" viewBox="0 0 663.81 517.86"><defs><style>.cls-1{fill:#18b3c3;}.cls-2{fill:#ef3c3b;}.cls-3{fill:#fff;}</style></defs><path class="cls-1" d="M271.3,453.09a68.71,68.71,0,0,1,77.07-68.35c14.68-28.34,23.25-60.33,26.09-93.07a174.77,174.77,0,0,1-30.9-16C325,263.36,310.67,247.74,301,229.22c-10.44-20-15.73-43.79-15.73-70.82,0-25.62,5.83-48.87,17.13-69.07-32.5-27.76-76.38-45-132.73-45H7.86v85.43l77.08,45.4V123.52h84.71c89.36,0,127,69.13,128.77,138.26,1.76,72.34-35.29,145.91-128.77,145.91H84.94V363.42L7.86,415.84v72.43H169.65c40.41,0,74.46-8.93,102.53-24.24A69.12,69.12,0,0,1,271.3,453.09Z"/><polygon class="cls-2" points="4.69 192.91 4.46 341.29 131.01 273.02 4.69 192.91"/><path class="cls-3" d="M473.43,216.8c-49.32-6.4-91.72-17.13-91.72-55.82,0-33,27.65-59,85.33-59,33,0,62.84,13.2,81.82,30.33l63.15-40C577.44,43.76,520.18,29,464.66,29c-75.84.61-159.41,38.07-159.41,129.39,0,99.67,77.69,123.71,161.79,134.55,54.68,6.29,95.23,23.42,95.23,65.31,0,48.19-45.81,66.55-94.72,66.55-4.54,0-9.18-.2-13.62-.62v75.33c4.13.1,8.26.2,12.49.2,91.73,0,172.93-42.51,172.93-141.46C639.35,252.29,559.39,228.25,473.43,216.8Z"/><circle class="cls-2" cx="344.16" cy="457.09" r="58.86" transform="translate(-179.78 687.02) rotate(-76.72)"/></svg>
