<svg id="Layer_1" data-name="Layer 1" xmlns="http://www.w3.org/2000/svg" viewBox="0 0 387.88 388.18"><defs><style>.cls-1{fill:#fff;}</style></defs><path class="cls-1" d="M192.53,7.23c-104.38,0-189,84.62-189,189s84.62,189,189,189,189-84.61,189-189S296.91,7.23,192.53,7.23ZM187.4,173.72a40.42,40.42,0,0,1-9.73,2c-14.74.83-24.92,15.75-25.42,29.39a34.8,34.8,0,0,0,2.89,16,16.18,16.18,0,0,0,5.18,8c16,19.4,45.28,17.25,57.67-4.39,4.83-8.45,4.45-18,4-27.28-1-20.94-2.55-41.85-3.6-62.78-1.07-21.43-1.83-82.88-2.71-104.33-.06-1.47,0-3,0-4.82,9.28,2.36,18.16,4.9,26.62,8.86,2.38,1.11,2.81,2.73,3,5.08,1.95,21.21,3,82.48,3.62,103.76.64,21.79,2.22,43.52,3.3,65.29,1.56,31.22-21.79,57-50.28,61.86-31.46,5.36-64.08-11.72-75.8-41a61.09,61.09,0,0,1,35.16-80.22c6.75-2.54,13.49-4.6,20.83-4s13,4.42,14.83,10C199.83,163.85,196.29,170.93,187.4,173.72Zm-4.47-41.66c-6.09.78-12.3.25-18.33,1.72-43.9,10.7-74,60.64-46.46,107.91,1.76,3,3.59,6,5.38,9l2.79,2.62a2.49,2.49,0,0,0,1.55,1.85l2.56,3.84c10.51,10,22.31,17.76,36.38,21.75,33.77,9.56,70.85-2.71,88.14-30.91a69.74,69.74,0,0,0,10.36-40c-1.1-27.92-2.47-55.83-3.7-83.75-.11-2.32,0-4.65,0-7-.07-2-.14-40-.22-42V47.54L280.1,60.21c1.9,2.54,4.66,4.06,7.09,6,1.63,1.63,3,3.14,3.14,5.83,1.74,31.7,3.63,99.39,5.54,131.07.48,8-.28,15.94-.57,23.91l-1.23,6.95c-4.53,15.82-11.25,30.51-22.15,43-15.19,17.45-34,29.16-56.64,33.81-37.28,7.66-70.79-1-99.1-26.33C84.87,256.5,72.61,221,80.64,179.74,85.41,155.28,100,136.38,120.39,122a20.25,20.25,0,0,0,5.9-4l1.29-.57,1.91-.92c13-6.42,26.58-11.18,41-13.11a42.32,42.32,0,0,1,12.41-.28c7.82,1.25,13.14,7.13,13.09,14.5C196,125.34,191,131,182.93,132.06Zm47.28,217.68c-57.72,14.62-107.67-1.66-149.57-43.15-22.3-22.08-36.15-49-42.49-79.74C36.94,221,36.49,215,35.7,209.13a4.86,4.86,0,0,0-.16-4.1c-.3-.46-.6-.92-.89-1.38,1.77-1.06,1.35-2.22.14-3.41,2.12-5.35,1.28-11.08,2.12-16.6C42.76,144.94,62,114.1,92.42,90.13c22.31-17.6,48.59-25.23,76.49-28,3.14-.31,6.29-.55,9.44-.82,1.23.86,2.63.66,4,.63,10.54,4.11,14.65,12.91,9.76,21.44-3.59,6.28-10,7.38-16.4,7.58-10.71.33-21.22,1.56-31.33,5.31-2.74.73-5.56,1.26-8,2.85-14.23,4.11-26.1,12.32-36.54,22.38C58.28,161.63,53.1,221.69,85.4,268.4c28.49,41.2,68.72,60.73,118.65,56.17,45-4.11,84.09-30.83,99-75.66A104.11,104.11,0,0,0,307.92,224q.12-3,.23-6c2-15.83-.47-31.53-1.4-47.28-.9-15.09-2.86-30.14-2.26-45.31,0-.94.1-1.89.21-3.9,4.62,5.09,7.58,10.13,10.71,15,9.62,15.09,17.6,31,20.75,48.72a143.43,143.43,0,0,1-5.2,70.87C314.6,305.79,280.29,337.06,230.21,349.74Z"/></svg>
